%% Database Entity-Relationship Diagram
erDiagram
    HAPTRFR {
        AFACCT AccountNumber
        AFMRNO MRN
    }
    HXPDICT {
        CCMRNO MRN
        XFBTEL PhoneNumber
        XCNAME PatientName
        HXRMNO RoomNumber
        XFRMNO RoomNumber
        HVACCT AccountNumber
        IMGMRN MRN
        HXGMRN MRN
        IHMRNO MRN
        IHACCT AccountNumber
        WBDATE DateOfBirth
        XMDMRN MRN
        ENNAME PatientName
    }
    HXPLVL1 {
        HX1NUM Key
    }
    HXPLVL2 {
        HX2NUM Key
    }
    HXPLVL3 {
        HX3NUM Key
    }
    HXPLVL4 {
        HX4NUM Key
    }
    HXPLVL5 {
        HX5NUM Key
    }
    HXPLVL6 {
        HX6NUM Key
    }
    HXPTABLD {
        XFDTCD Code
        XFDECD Desc
    }
    HXPXMLD {
        XMDUSR User
        XMDSEQ Seq
        XMDSQ2 Seq2
    }
    HXPXMLR {
        XMRUSR User
        XMRSEQ Seq
        XMRID Id
    }
    OAPIRNK {
        BRKLV6 Key
        BRKACC AccountNumber
        BRKSEQ Seq
        BRKMRN MRN
    }
    OMPMAST {
        MMPLV6 Key
        MMACCT AccountNumber
        MMMRNO MRN
        MMNAME PatientName
        MMPSSN SSN
        MMMMRN MRN
    }
    OXPBNFIT {
        XFBUBN Key
        XFBPLN Key
        XFBTEL PhoneNumber
    }
    OXPBNFIT ||--|| HXPBNFIT : "logical view"
    HXPNSTN ||--|| OXPNSTN : "logical view"
    HXLTABLD ||--|| HXPTABLD : "logical view"
    HXLTABLP ||--|| HXPTABLD : "logical view"
    HXLTABLS ||--|| HXPTABLD : "logical view"
    HMLMAST5H ||--|| OMPMAST : "logical view"
    HAPIRNK ||--|| OAPIRNK : "logical view"
